<mxfile host="app.diagrams.net" modified="2023-05-31T20:37:21.909Z" agent="Mozilla/5.0 (Windows NT 10.0; Win64; x64) AppleWebKit/537.36 (KHTML, like Gecko) Chrome/113.0.0.0 Safari/537.36" etag="S1CUI8s9YJmoXn1ULMlc" version="21.3.6" type="device">
  <diagram name="Page-1" id="_a84kK5cUK9xz4NeBcO_">
    <mxGraphModel dx="1615" dy="882" grid="1" gridSize="10" guides="1" tooltips="1" connect="1" arrows="1" fold="1" page="1" pageScale="1" pageWidth="850" pageHeight="1100" math="0" shadow="0">
      <root>
        <mxCell id="0" />
        <mxCell id="1" parent="0" />
        <mxCell id="H6GOI8UVb8XVnpEziUi2-37" value="" style="edgeStyle=orthogonalEdgeStyle;rounded=0;orthogonalLoop=1;jettySize=auto;html=1;" edge="1" parent="1" source="H6GOI8UVb8XVnpEziUi2-1" target="H6GOI8UVb8XVnpEziUi2-2">
          <mxGeometry relative="1" as="geometry" />
        </mxCell>
        <mxCell id="H6GOI8UVb8XVnpEziUi2-1" value="1" style="ellipse;whiteSpace=wrap;html=1;aspect=fixed;" vertex="1" parent="1">
          <mxGeometry x="380" y="10" width="50" height="50" as="geometry" />
        </mxCell>
        <mxCell id="H6GOI8UVb8XVnpEziUi2-70" style="edgeStyle=orthogonalEdgeStyle;rounded=0;orthogonalLoop=1;jettySize=auto;html=1;exitX=0;exitY=0.5;exitDx=0;exitDy=0;entryX=0;entryY=0;entryDx=0;entryDy=0;" edge="1" parent="1" source="H6GOI8UVb8XVnpEziUi2-2" target="H6GOI8UVb8XVnpEziUi2-32">
          <mxGeometry relative="1" as="geometry" />
        </mxCell>
        <mxCell id="H6GOI8UVb8XVnpEziUi2-2" value="2" style="ellipse;whiteSpace=wrap;html=1;aspect=fixed;" vertex="1" parent="1">
          <mxGeometry x="280" y="80" width="50" height="50" as="geometry" />
        </mxCell>
        <mxCell id="H6GOI8UVb8XVnpEziUi2-36" value="" style="edgeStyle=orthogonalEdgeStyle;rounded=0;orthogonalLoop=1;jettySize=auto;html=1;" edge="1" parent="1" source="H6GOI8UVb8XVnpEziUi2-3" target="H6GOI8UVb8XVnpEziUi2-16">
          <mxGeometry relative="1" as="geometry" />
        </mxCell>
        <mxCell id="H6GOI8UVb8XVnpEziUi2-3" value="3" style="ellipse;whiteSpace=wrap;html=1;aspect=fixed;" vertex="1" parent="1">
          <mxGeometry x="470" y="80" width="50" height="50" as="geometry" />
        </mxCell>
        <mxCell id="H6GOI8UVb8XVnpEziUi2-4" value="4" style="ellipse;whiteSpace=wrap;html=1;aspect=fixed;" vertex="1" parent="1">
          <mxGeometry x="550" y="120" width="50" height="50" as="geometry" />
        </mxCell>
        <mxCell id="H6GOI8UVb8XVnpEziUi2-43" value="" style="edgeStyle=orthogonalEdgeStyle;rounded=0;orthogonalLoop=1;jettySize=auto;html=1;" edge="1" parent="1" source="H6GOI8UVb8XVnpEziUi2-5" target="H6GOI8UVb8XVnpEziUi2-15">
          <mxGeometry relative="1" as="geometry" />
        </mxCell>
        <mxCell id="H6GOI8UVb8XVnpEziUi2-5" value="8.2" style="ellipse;whiteSpace=wrap;html=1;aspect=fixed;" vertex="1" parent="1">
          <mxGeometry x="470" y="510" width="50" height="50" as="geometry" />
        </mxCell>
        <mxCell id="H6GOI8UVb8XVnpEziUi2-39" value="" style="edgeStyle=orthogonalEdgeStyle;rounded=0;orthogonalLoop=1;jettySize=auto;html=1;" edge="1" parent="1" source="H6GOI8UVb8XVnpEziUi2-6" target="H6GOI8UVb8XVnpEziUi2-14">
          <mxGeometry relative="1" as="geometry" />
        </mxCell>
        <mxCell id="H6GOI8UVb8XVnpEziUi2-75" style="edgeStyle=orthogonalEdgeStyle;rounded=0;orthogonalLoop=1;jettySize=auto;html=1;entryX=0.5;entryY=0;entryDx=0;entryDy=0;" edge="1" parent="1" source="H6GOI8UVb8XVnpEziUi2-6" target="H6GOI8UVb8XVnpEziUi2-12">
          <mxGeometry relative="1" as="geometry" />
        </mxCell>
        <mxCell id="H6GOI8UVb8XVnpEziUi2-6" value="6" style="ellipse;whiteSpace=wrap;html=1;aspect=fixed;" vertex="1" parent="1">
          <mxGeometry x="470" y="260" width="50" height="50" as="geometry" />
        </mxCell>
        <mxCell id="H6GOI8UVb8XVnpEziUi2-7" value="10" style="ellipse;whiteSpace=wrap;html=1;aspect=fixed;" vertex="1" parent="1">
          <mxGeometry x="470" y="680" width="50" height="50" as="geometry" />
        </mxCell>
        <mxCell id="H6GOI8UVb8XVnpEziUi2-8" value="8.3" style="ellipse;whiteSpace=wrap;html=1;aspect=fixed;" vertex="1" parent="1">
          <mxGeometry x="690" y="810" width="50" height="50" as="geometry" />
        </mxCell>
        <mxCell id="H6GOI8UVb8XVnpEziUi2-68" style="edgeStyle=orthogonalEdgeStyle;rounded=0;orthogonalLoop=1;jettySize=auto;html=1;exitX=0;exitY=0.5;exitDx=0;exitDy=0;entryX=1;entryY=0;entryDx=0;entryDy=0;" edge="1" parent="1" source="H6GOI8UVb8XVnpEziUi2-9" target="H6GOI8UVb8XVnpEziUi2-66">
          <mxGeometry relative="1" as="geometry" />
        </mxCell>
        <mxCell id="H6GOI8UVb8XVnpEziUi2-9" value="17" style="ellipse;whiteSpace=wrap;html=1;aspect=fixed;" vertex="1" parent="1">
          <mxGeometry x="280" y="480" width="50" height="50" as="geometry" />
        </mxCell>
        <mxCell id="H6GOI8UVb8XVnpEziUi2-93" style="edgeStyle=orthogonalEdgeStyle;rounded=0;orthogonalLoop=1;jettySize=auto;html=1;exitX=1;exitY=0.5;exitDx=0;exitDy=0;entryX=0;entryY=0.5;entryDx=0;entryDy=0;" edge="1" parent="1" source="H6GOI8UVb8XVnpEziUi2-10" target="H6GOI8UVb8XVnpEziUi2-8">
          <mxGeometry relative="1" as="geometry" />
        </mxCell>
        <mxCell id="H6GOI8UVb8XVnpEziUi2-10" value="12" style="ellipse;whiteSpace=wrap;html=1;aspect=fixed;" vertex="1" parent="1">
          <mxGeometry x="555" y="810" width="50" height="50" as="geometry" />
        </mxCell>
        <mxCell id="H6GOI8UVb8XVnpEziUi2-41" value="" style="edgeStyle=orthogonalEdgeStyle;rounded=0;orthogonalLoop=1;jettySize=auto;html=1;" edge="1" parent="1" source="H6GOI8UVb8XVnpEziUi2-11" target="H6GOI8UVb8XVnpEziUi2-5">
          <mxGeometry relative="1" as="geometry" />
        </mxCell>
        <mxCell id="H6GOI8UVb8XVnpEziUi2-11" value="8.1" style="ellipse;whiteSpace=wrap;html=1;aspect=fixed;" vertex="1" parent="1">
          <mxGeometry x="470" y="430" width="50" height="50" as="geometry" />
        </mxCell>
        <mxCell id="H6GOI8UVb8XVnpEziUi2-74" style="edgeStyle=orthogonalEdgeStyle;rounded=0;orthogonalLoop=1;jettySize=auto;html=1;exitX=0.5;exitY=1;exitDx=0;exitDy=0;" edge="1" parent="1" source="H6GOI8UVb8XVnpEziUi2-12" target="H6GOI8UVb8XVnpEziUi2-9">
          <mxGeometry relative="1" as="geometry" />
        </mxCell>
        <mxCell id="H6GOI8UVb8XVnpEziUi2-12" value="14, 15, 16" style="ellipse;whiteSpace=wrap;html=1;aspect=fixed;" vertex="1" parent="1">
          <mxGeometry x="280" y="380" width="50" height="50" as="geometry" />
        </mxCell>
        <mxCell id="H6GOI8UVb8XVnpEziUi2-50" style="edgeStyle=orthogonalEdgeStyle;rounded=0;orthogonalLoop=1;jettySize=auto;html=1;" edge="1" parent="1" source="H6GOI8UVb8XVnpEziUi2-13">
          <mxGeometry relative="1" as="geometry">
            <mxPoint x="580" y="810" as="targetPoint" />
          </mxGeometry>
        </mxCell>
        <mxCell id="H6GOI8UVb8XVnpEziUi2-13" value="11" style="ellipse;whiteSpace=wrap;html=1;aspect=fixed;" vertex="1" parent="1">
          <mxGeometry x="560" y="720" width="40" height="40" as="geometry" />
        </mxCell>
        <mxCell id="H6GOI8UVb8XVnpEziUi2-40" value="" style="edgeStyle=orthogonalEdgeStyle;rounded=0;orthogonalLoop=1;jettySize=auto;html=1;" edge="1" parent="1" source="H6GOI8UVb8XVnpEziUi2-14" target="H6GOI8UVb8XVnpEziUi2-11">
          <mxGeometry relative="1" as="geometry" />
        </mxCell>
        <mxCell id="H6GOI8UVb8XVnpEziUi2-14" value="7" style="ellipse;whiteSpace=wrap;html=1;aspect=fixed;" vertex="1" parent="1">
          <mxGeometry x="470" y="350" width="50" height="50" as="geometry" />
        </mxCell>
        <mxCell id="H6GOI8UVb8XVnpEziUi2-44" value="" style="edgeStyle=orthogonalEdgeStyle;rounded=0;orthogonalLoop=1;jettySize=auto;html=1;" edge="1" parent="1" source="H6GOI8UVb8XVnpEziUi2-15" target="H6GOI8UVb8XVnpEziUi2-7">
          <mxGeometry relative="1" as="geometry" />
        </mxCell>
        <mxCell id="H6GOI8UVb8XVnpEziUi2-15" value="9" style="ellipse;whiteSpace=wrap;html=1;aspect=fixed;" vertex="1" parent="1">
          <mxGeometry x="470" y="600" width="50" height="50" as="geometry" />
        </mxCell>
        <mxCell id="H6GOI8UVb8XVnpEziUi2-38" value="" style="edgeStyle=orthogonalEdgeStyle;rounded=0;orthogonalLoop=1;jettySize=auto;html=1;" edge="1" parent="1" source="H6GOI8UVb8XVnpEziUi2-16" target="H6GOI8UVb8XVnpEziUi2-6">
          <mxGeometry relative="1" as="geometry" />
        </mxCell>
        <mxCell id="H6GOI8UVb8XVnpEziUi2-16" value="5" style="ellipse;whiteSpace=wrap;html=1;aspect=fixed;" vertex="1" parent="1">
          <mxGeometry x="470" y="180" width="50" height="50" as="geometry" />
        </mxCell>
        <mxCell id="H6GOI8UVb8XVnpEziUi2-17" value="13" style="ellipse;whiteSpace=wrap;html=1;aspect=fixed;" vertex="1" parent="1">
          <mxGeometry x="460" y="910" width="50" height="50" as="geometry" />
        </mxCell>
        <mxCell id="H6GOI8UVb8XVnpEziUi2-62" value="" style="edgeStyle=orthogonalEdgeStyle;rounded=0;orthogonalLoop=1;jettySize=auto;html=1;exitX=0.5;exitY=1;exitDx=0;exitDy=0;" edge="1" parent="1" source="H6GOI8UVb8XVnpEziUi2-9" target="H6GOI8UVb8XVnpEziUi2-23">
          <mxGeometry relative="1" as="geometry">
            <mxPoint x="305" y="740.0000000000002" as="sourcePoint" />
          </mxGeometry>
        </mxCell>
        <mxCell id="H6GOI8UVb8XVnpEziUi2-111" value="" style="edgeStyle=orthogonalEdgeStyle;rounded=0;orthogonalLoop=1;jettySize=auto;html=1;" edge="1" parent="1" source="H6GOI8UVb8XVnpEziUi2-21" target="H6GOI8UVb8XVnpEziUi2-96">
          <mxGeometry relative="1" as="geometry" />
        </mxCell>
        <mxCell id="H6GOI8UVb8XVnpEziUi2-119" value="" style="edgeStyle=orthogonalEdgeStyle;rounded=0;orthogonalLoop=1;jettySize=auto;html=1;" edge="1" parent="1" source="H6GOI8UVb8XVnpEziUi2-21" target="H6GOI8UVb8XVnpEziUi2-29">
          <mxGeometry relative="1" as="geometry" />
        </mxCell>
        <mxCell id="H6GOI8UVb8XVnpEziUi2-21" value="21.2" style="ellipse;whiteSpace=wrap;html=1;aspect=fixed;" vertex="1" parent="1">
          <mxGeometry x="290" y="890" width="50" height="50" as="geometry" />
        </mxCell>
        <mxCell id="H6GOI8UVb8XVnpEziUi2-116" value="" style="edgeStyle=orthogonalEdgeStyle;rounded=0;orthogonalLoop=1;jettySize=auto;html=1;" edge="1" parent="1" source="H6GOI8UVb8XVnpEziUi2-22" target="H6GOI8UVb8XVnpEziUi2-114">
          <mxGeometry relative="1" as="geometry" />
        </mxCell>
        <mxCell id="H6GOI8UVb8XVnpEziUi2-22" value="20" style="ellipse;whiteSpace=wrap;html=1;aspect=fixed;" vertex="1" parent="1">
          <mxGeometry x="290" y="740" width="50" height="50" as="geometry" />
        </mxCell>
        <mxCell id="H6GOI8UVb8XVnpEziUi2-63" value="" style="edgeStyle=orthogonalEdgeStyle;rounded=0;orthogonalLoop=1;jettySize=auto;html=1;" edge="1" parent="1" source="H6GOI8UVb8XVnpEziUi2-23" target="H6GOI8UVb8XVnpEziUi2-22">
          <mxGeometry relative="1" as="geometry" />
        </mxCell>
        <mxCell id="H6GOI8UVb8XVnpEziUi2-23" value="19" style="ellipse;whiteSpace=wrap;html=1;aspect=fixed;" vertex="1" parent="1">
          <mxGeometry x="290" y="650" width="50" height="50" as="geometry" />
        </mxCell>
        <mxCell id="H6GOI8UVb8XVnpEziUi2-122" value="" style="edgeStyle=orthogonalEdgeStyle;rounded=0;orthogonalLoop=1;jettySize=auto;html=1;" edge="1" parent="1" source="H6GOI8UVb8XVnpEziUi2-29" target="H6GOI8UVb8XVnpEziUi2-121">
          <mxGeometry relative="1" as="geometry" />
        </mxCell>
        <mxCell id="H6GOI8UVb8XVnpEziUi2-29" value="22" style="ellipse;whiteSpace=wrap;html=1;aspect=fixed;" vertex="1" parent="1">
          <mxGeometry x="170" y="950" width="50" height="50" as="geometry" />
        </mxCell>
        <mxCell id="H6GOI8UVb8XVnpEziUi2-112" value="" style="edgeStyle=orthogonalEdgeStyle;rounded=0;orthogonalLoop=1;jettySize=auto;html=1;" edge="1" parent="1" source="H6GOI8UVb8XVnpEziUi2-30" target="H6GOI8UVb8XVnpEziUi2-21">
          <mxGeometry relative="1" as="geometry" />
        </mxCell>
        <mxCell id="H6GOI8UVb8XVnpEziUi2-30" value="21.3" style="ellipse;whiteSpace=wrap;html=1;aspect=fixed;" vertex="1" parent="1">
          <mxGeometry x="290" y="970" width="50" height="50" as="geometry" />
        </mxCell>
        <mxCell id="H6GOI8UVb8XVnpEziUi2-32" value="25" style="ellipse;whiteSpace=wrap;html=1;aspect=fixed;" vertex="1" parent="1">
          <mxGeometry x="10" y="1038" width="50" height="50" as="geometry" />
        </mxCell>
        <mxCell id="H6GOI8UVb8XVnpEziUi2-54" value="" style="endArrow=classic;html=1;rounded=0;entryX=0;entryY=0;entryDx=0;entryDy=0;" edge="1" parent="1" target="H6GOI8UVb8XVnpEziUi2-10">
          <mxGeometry width="50" height="50" relative="1" as="geometry">
            <mxPoint x="490" y="730" as="sourcePoint" />
            <mxPoint x="550" y="770" as="targetPoint" />
          </mxGeometry>
        </mxCell>
        <mxCell id="H6GOI8UVb8XVnpEziUi2-56" value="" style="endArrow=classic;html=1;rounded=0;entryX=1;entryY=0.332;entryDx=0;entryDy=0;entryPerimeter=0;" edge="1" parent="1" target="H6GOI8UVb8XVnpEziUi2-17">
          <mxGeometry width="50" height="50" relative="1" as="geometry">
            <mxPoint x="570" y="860" as="sourcePoint" />
            <mxPoint x="520" y="930" as="targetPoint" />
          </mxGeometry>
        </mxCell>
        <mxCell id="H6GOI8UVb8XVnpEziUi2-134" style="edgeStyle=orthogonalEdgeStyle;rounded=0;orthogonalLoop=1;jettySize=auto;html=1;exitX=0.5;exitY=1;exitDx=0;exitDy=0;entryX=1;entryY=0;entryDx=0;entryDy=0;" edge="1" parent="1" source="H6GOI8UVb8XVnpEziUi2-66" target="H6GOI8UVb8XVnpEziUi2-32">
          <mxGeometry relative="1" as="geometry">
            <mxPoint x="80" y="1040" as="targetPoint" />
          </mxGeometry>
        </mxCell>
        <mxCell id="H6GOI8UVb8XVnpEziUi2-66" value="18" style="ellipse;whiteSpace=wrap;html=1;aspect=fixed;" vertex="1" parent="1">
          <mxGeometry x="140" y="680" width="50" height="50" as="geometry" />
        </mxCell>
        <mxCell id="H6GOI8UVb8XVnpEziUi2-80" value="" style="endArrow=classic;html=1;rounded=0;entryX=0;entryY=0;entryDx=0;entryDy=0;exitX=1;exitY=1;exitDx=0;exitDy=0;" edge="1" parent="1" source="H6GOI8UVb8XVnpEziUi2-1" target="H6GOI8UVb8XVnpEziUi2-3">
          <mxGeometry width="50" height="50" relative="1" as="geometry">
            <mxPoint x="430" y="60" as="sourcePoint" />
            <mxPoint x="500" y="90" as="targetPoint" />
          </mxGeometry>
        </mxCell>
        <mxCell id="H6GOI8UVb8XVnpEziUi2-82" value="" style="endArrow=classic;html=1;rounded=0;entryX=1;entryY=0.5;entryDx=0;entryDy=0;" edge="1" parent="1" target="H6GOI8UVb8XVnpEziUi2-16">
          <mxGeometry width="50" height="50" relative="1" as="geometry">
            <mxPoint x="570" y="170" as="sourcePoint" />
            <mxPoint x="510" y="240" as="targetPoint" />
          </mxGeometry>
        </mxCell>
        <mxCell id="H6GOI8UVb8XVnpEziUi2-88" value="" style="endArrow=classic;html=1;rounded=0;" edge="1" parent="1" target="H6GOI8UVb8XVnpEziUi2-4">
          <mxGeometry width="50" height="50" relative="1" as="geometry">
            <mxPoint x="520" y="100" as="sourcePoint" />
            <mxPoint x="570" y="170" as="targetPoint" />
          </mxGeometry>
        </mxCell>
        <mxCell id="H6GOI8UVb8XVnpEziUi2-90" value="" style="endArrow=classic;html=1;rounded=0;exitX=1;exitY=0.5;exitDx=0;exitDy=0;" edge="1" parent="1" source="H6GOI8UVb8XVnpEziUi2-7">
          <mxGeometry width="50" height="50" relative="1" as="geometry">
            <mxPoint x="524" y="711" as="sourcePoint" />
            <mxPoint x="560" y="740" as="targetPoint" />
          </mxGeometry>
        </mxCell>
        <mxCell id="H6GOI8UVb8XVnpEziUi2-96" value="24" style="ellipse;whiteSpace=wrap;html=1;aspect=fixed;" vertex="1" parent="1">
          <mxGeometry x="390" y="960" width="52" height="52" as="geometry" />
        </mxCell>
        <mxCell id="H6GOI8UVb8XVnpEziUi2-102" value="" style="endArrow=classic;html=1;rounded=0;entryX=0;entryY=1;entryDx=0;entryDy=0;" edge="1" parent="1" target="H6GOI8UVb8XVnpEziUi2-8">
          <mxGeometry width="50" height="50" relative="1" as="geometry">
            <mxPoint x="510" y="940" as="sourcePoint" />
            <mxPoint x="700" y="870" as="targetPoint" />
          </mxGeometry>
        </mxCell>
        <mxCell id="H6GOI8UVb8XVnpEziUi2-109" value="" style="curved=1;endArrow=classic;html=1;rounded=0;exitX=1;exitY=0.5;exitDx=0;exitDy=0;entryX=1;entryY=0.5;entryDx=0;entryDy=0;" edge="1" parent="1" source="H6GOI8UVb8XVnpEziUi2-8" target="H6GOI8UVb8XVnpEziUi2-5">
          <mxGeometry width="50" height="50" relative="1" as="geometry">
            <mxPoint x="820" y="825" as="sourcePoint" />
            <mxPoint x="730" y="510" as="targetPoint" />
            <Array as="points">
              <mxPoint x="810" y="775" />
              <mxPoint x="760" y="725" />
              <mxPoint x="850" y="500" />
            </Array>
          </mxGeometry>
        </mxCell>
        <mxCell id="H6GOI8UVb8XVnpEziUi2-118" value="" style="edgeStyle=orthogonalEdgeStyle;rounded=0;orthogonalLoop=1;jettySize=auto;html=1;" edge="1" parent="1" source="H6GOI8UVb8XVnpEziUi2-114" target="H6GOI8UVb8XVnpEziUi2-21">
          <mxGeometry relative="1" as="geometry" />
        </mxCell>
        <mxCell id="H6GOI8UVb8XVnpEziUi2-114" value="21.1" style="ellipse;whiteSpace=wrap;html=1;aspect=fixed;" vertex="1" parent="1">
          <mxGeometry x="290" y="820" width="50" height="50" as="geometry" />
        </mxCell>
        <mxCell id="H6GOI8UVb8XVnpEziUi2-120" value="" style="endArrow=classic;html=1;rounded=0;entryX=0;entryY=0.5;entryDx=0;entryDy=0;exitX=1;exitY=0.5;exitDx=0;exitDy=0;" edge="1" parent="1" source="H6GOI8UVb8XVnpEziUi2-29" target="H6GOI8UVb8XVnpEziUi2-30">
          <mxGeometry width="50" height="50" relative="1" as="geometry">
            <mxPoint x="210" y="970" as="sourcePoint" />
            <mxPoint x="300" y="1020" as="targetPoint" />
          </mxGeometry>
        </mxCell>
        <mxCell id="H6GOI8UVb8XVnpEziUi2-133" style="edgeStyle=orthogonalEdgeStyle;rounded=0;orthogonalLoop=1;jettySize=auto;html=1;" edge="1" parent="1" source="H6GOI8UVb8XVnpEziUi2-121" target="H6GOI8UVb8XVnpEziUi2-32">
          <mxGeometry relative="1" as="geometry" />
        </mxCell>
        <mxCell id="H6GOI8UVb8XVnpEziUi2-121" value="23" style="ellipse;whiteSpace=wrap;html=1;aspect=fixed;" vertex="1" parent="1">
          <mxGeometry x="90" y="920" width="50" height="50" as="geometry" />
        </mxCell>
        <mxCell id="H6GOI8UVb8XVnpEziUi2-127" value="" style="curved=1;endArrow=classic;html=1;rounded=0;entryX=1;entryY=0.5;entryDx=0;entryDy=0;" edge="1" parent="1" target="H6GOI8UVb8XVnpEziUi2-21">
          <mxGeometry width="50" height="50" relative="1" as="geometry">
            <mxPoint x="330" y="990" as="sourcePoint" />
            <mxPoint x="300" y="960" as="targetPoint" />
            <Array as="points">
              <mxPoint x="390" y="1000" />
              <mxPoint x="340" y="950" />
            </Array>
          </mxGeometry>
        </mxCell>
        <mxCell id="H6GOI8UVb8XVnpEziUi2-132" value="" style="curved=1;endArrow=classic;html=1;rounded=0;exitX=0.5;exitY=1;exitDx=0;exitDy=0;entryX=1;entryY=0.5;entryDx=0;entryDy=0;" edge="1" parent="1" source="H6GOI8UVb8XVnpEziUi2-96" target="H6GOI8UVb8XVnpEziUi2-32">
          <mxGeometry width="50" height="50" relative="1" as="geometry">
            <mxPoint x="170" y="1140" as="sourcePoint" />
            <mxPoint x="220" y="1090" as="targetPoint" />
            <Array as="points">
              <mxPoint x="240" y="1100" />
              <mxPoint x="180" y="1063" />
              <mxPoint x="170" y="1090" />
            </Array>
          </mxGeometry>
        </mxCell>
        <mxCell id="H6GOI8UVb8XVnpEziUi2-135" value="" style="endArrow=classic;html=1;rounded=0;exitX=0;exitY=0;exitDx=0;exitDy=0;" edge="1" parent="1" source="H6GOI8UVb8XVnpEziUi2-5">
          <mxGeometry width="50" height="50" relative="1" as="geometry">
            <mxPoint x="442" y="480" as="sourcePoint" />
            <mxPoint x="330" y="410" as="targetPoint" />
          </mxGeometry>
        </mxCell>
      </root>
    </mxGraphModel>
  </diagram>
</mxfile>
